<?xml version="1.0" encoding="UTF-8"?>
<svg id="Layer_1" xmlns="http://www.w3.org/2000/svg" version="1.1" viewBox="0 0 720 365.3660829">
  <!-- Generator: Adobe Illustrator 30.2.1, SVG Export Plug-In . SVG Version: 2.1.1 Build 1)  -->
  <defs>
    <style>
      .st0 {
        fill: #76328e;
      }

      .st1 {
        fill: #bd9bcd;
      }

      .st2 {
        fill: #e99f00;
      }
    </style>
  </defs>
  <g>
    <path class="st1" d="M50.0517647,332.5587462H6.1625663c-2.4108445,0-4.3625663-1.951636-4.3625663-4.3624806V37.5346917c0-2.4108445,1.9517218-4.3624806,4.3625663-4.3624806h43.8891984c2.4108445,0,4.3624806,1.951636,4.3624806,4.3624806s-1.951636,4.3624806-4.3624806,4.3624806H10.5250469v281.9366128h39.5267178c2.4108445,0,4.3624806,1.951636,4.3624806,4.3624806s-1.951636,4.3624806-4.3624806,4.3624806Z"/>
    <path class="st1" d="M635.7590529,33.1722112h-379.6687922c-2.4108445,0-4.3624806,1.951636-4.3624806,4.3624806s1.951636,4.3624806,4.3624806,4.3624806h370.9438311l8.7249611-8.7249611Z"/>
    <path class="st1" d="M709.4751427,124.4105289v199.4232561h-39.5267178c-2.4108445,0-4.3624806,1.951636-4.3624806,4.3624806s1.951636,4.3624806,4.3624806,4.3624806h43.8891984c2.4108445,0,4.3623767-1.951636,4.3623767-4.3624806V115.6855678l-8.7248573,8.7249611Z"/>
  </g>
  <g>
    <g>
      <path class="st0" d="M80.3950997,72.1094661V2.0105958h22.5290464c7.0759852,0,13.1187514,1.2523868,18.1248196,3.7571603s8.8258478,6.2410607,11.4662966,11.2158193c2.6369699,4.9747585,3.9554549,11.1636365,3.9554549,18.5770703v2.00034c0,7.4760532-1.3706677,13.786691-4.1050455,18.9249556-2.7378566,5.1417434-6.6933115,9.0276213-11.8663646,11.6645912-5.176532,2.6404488-11.3654099,3.9589337-18.5770703,3.9589337h-21.5271369ZM92.4110549,61.6937828h8.5092723c4.6060002,0,8.6275533-.7862206,12.068138-2.351704,3.4371059-1.5689623,6.1088643-4.1224398,8.0117964-7.6604324,1.8994533-3.5414715,2.8526587-8.2448795,2.8526587-14.1206608v-2.00034c0-5.4757132-.9671209-9.9147286-2.9048415-13.3205248s-4.5538174-5.8896966-7.858727-7.4621378c-3.3049095-1.5654835-7.0272813-2.351704-11.1671153-2.351704h-9.5111817v49.2675038Z"/>
      <path class="st0" d="M147.8952675,72.1094661V2.0105958h26.5332052c5.8757812,0,10.7670473.9392901,14.6703194,2.8039548,3.9067509,1.8716224,6.8602964,4.4424942,8.8641152,7.7126152,2.00034,3.2735998,3.0022494,7.0446756,3.0022494,11.316706,0,4.8042948-1.3010907,8.9615231-3.9032721,12.4647272-2.6056602,3.5032041-6.5089323,6.0253719-11.716774,7.5595457l17.6238649,28.2413216h-13.2196381l-15.5191593-26.8358653h-14.3189553v26.8358653h-12.0159552ZM159.9112227,35.2579855h12.5169099c6.140174,0,10.4295987-1.0019094,12.8647952-3.0022494,2.4386753-2.0038188,3.6562736-4.8077736,3.6562736-8.4118644s-1.2175982-6.4080456-3.6562736-8.4118644c-2.4351965-2.0038188-6.7246212-3.0057282-12.8647952-3.0057282h-12.5169099v22.8317065Z"/>
      <path class="st0" d="M218.8847239,73.1113755c-1.269781,0-2.4386753-.3200544-3.5066829-.9532055s-1.9203264-1.4854699-2.5534775-2.5534775-.9497266-2.2369019-.9497266-3.5066829c0-2.00034.681855-3.6667101,2.0525228-5.0060682,1.3671889-1.3324004,3.0196436-2.00034,4.9573643-2.00034,1.9342418,0,3.5866965.6679396,4.9538854,2.00034,1.3706677,1.3393581,2.0560016,3.0057282,2.0560016,5.0060682,0,1.269781-.3200544,2.4386753-.9532055,3.5066829-.6366299,1.0680076-1.4680756,1.9203264-2.5047735,2.5534775-1.0332191.6331511-2.2195077.9532055-3.551908.9532055Z"/>
    </g>
    <g>
      <path class="st0" d="M80.3950997,363.3554871v-70.0953915h46.5609568v10.4156833h-34.5450016v19.926865h31.5427522v10.4122044h-31.5427522v29.3406388h-12.0159552Z"/>
      <path class="st0" d="M141.2054348,363.3554871v-70.0953915h12.0194341v70.0953915h-12.0194341Z"/>
      <path class="st0" d="M190.6851486,363.3554871v-59.6797082h-23.5309558v-10.4156833h59.0778668v10.4156833h-23.5309558v59.6797082h-12.0159552Z"/>
      <path class="st0" d="M236.6755737,363.3554871v-9.410295l37.6516165-50.2694132h-36.6497071v-10.4156833h51.0695492v9.4137739l-37.6516165,50.2694132h38.653526v10.4122044h-53.073368Z"/>
      <path class="st0" d="M318.9573841,363.3554871l-18.5248876-70.0953915h12.4160232l13.3170459,52.0714586,15.3208648-52.0714586h10.0156153l16.2218875,52.0714586,13.2161592-52.0714586h11.6158872l-18.5248876,70.0953915h-12.0159552l-15.9227062-52.0714586-15.1190913,52.0714586h-12.0159552Z"/>
      <path class="st0" d="M390.1555717,363.3554871l26.536684-70.0953915h12.0159552l26.536684,70.0953915h-12.8195701l-5.9070909-15.8218195h-28.4396161l-5.9070909,15.8218195h-12.0159552ZM411.9853688,337.1214633h20.6261142l-10.2139098-28.8396841-10.4122044,28.8396841Z"/>
      <path class="st0" d="M475.7492494,363.3554871v-59.6797082h-23.5309558v-10.4156833h59.0778668v10.4156833h-23.5309558v59.6797082h-12.0159552Z"/>
      <path class="st0" d="M523.6878317,363.3554871v-70.0953915h47.0619115v10.4156833h-35.0459563v18.4240009h32.0437069v10.4156833h-32.0437069v20.4278197h35.0459563v10.4122044h-47.0619115Z"/>
      <path class="st0" d="M584.5086034,363.3554871v-70.0953915h26.5332052c5.8757812,0,10.7670473.9358112,14.6703194,2.8039548,3.9067509,1.8716224,6.8602964,4.4424942,8.8641152,7.7126152,2.00034,3.270121,3.0022494,7.0411967,3.0022494,11.3132271,0,4.8077736-1.3010907,8.9615231-3.9032721,12.468206-2.6056602,3.5032041-6.5089323,6.0253719-11.716774,7.5595457l17.6238649,28.2378427h-13.2196381l-15.5191593-26.8358653h-14.3189553v26.8358653h-12.0159552ZM596.5245586,326.5074854h12.5169099c6.140174,0,10.4295987-1.0019094,12.8647952-3.0057282,2.4386753-2.0038188,3.6562736-4.8077736,3.6562736-8.4118644s-1.2175982-6.4080456-3.6562736-8.4118644c-2.4351965-2.00034-6.7246212-3.0022494-12.8647952-3.0022494h-12.5169099v22.8317065Z"/>
    </g>
    <g>
      <path class="st0" d="M145.247861,252.2305137c-12.4960368,0-23.6527156-2.2647327-33.4665574-6.7907193-9.8207995-4.5225078-17.4986262-11.8246184-23.0473953-21.8958953-5.5452903-10.0712769-8.3179354-23.4578999-8.3179354-40.1598689v-3.6354005c0-11.855928,1.6559336-21.9898243,4.9712797-30.4051676,3.3153461-8.4153433,7.9387405-15.2999916,13.8667046-20.6539451s12.843922-9.3059294,20.7478741-11.855928,16.3192953-3.8267373,25.2460299-3.8267373c8.1579082,0,15.8392137.9566843,23.0439165,2.870053,7.2012239,1.9098898,13.5779598,4.93997,19.1232501,9.0832829,5.5452903,4.1433129,10.0086576,9.5320548,13.386623,16.1592681,3.3779654,6.6306922,5.3226438,14.725981,5.834035,24.2858667h-42.8385851c-.894065-6.6272133-3.0926995-11.2158193-6.5993825-13.7658179-3.5066829-2.5499986-7.4899686-3.8267373-11.949857-3.8267373-3.9554549,0-7.5560668,1.0227825-10.8053147,3.0613899-3.2527267,2.0386073-5.834035,5.3852631-7.7474037,10.0399672-1.9098898,4.6547041-2.8665742,10.9305534-2.8665742,18.8345054v3.8267373c0,6.2480184.5740106,11.504564,1.7185529,15.7765944,1.1480212,4.2720304,2.6787161,7.7439248,4.5920848,10.422641,1.9133687,2.6752373,4.1746225,4.6233945,6.7872405,5.8305562,2.6126179,1.2141194,5.3852631,1.8194397,8.3214143,1.8194397,4.9712797,0,9.1111137-1.3080484,12.4299386-3.9206663,3.3118672-2.6126179,5.3539534-7.1733931,6.1193009-13.6753677h42.8385851c-.5113913,9.692082-2.3899714,17.8812999-5.6426981,24.5746114-3.2527267,6.6933115-7.6186862,12.0820534-13.1013571,16.1592681-5.4826709,4.0841724-11.855928,7.0481544-19.1232501,8.8954249-7.2673221,1.8437916-15.1086548,2.7726451-23.5205192,2.7726451Z"/>
      <path class="st0" d="M226.8860838,249.5517976V115.6855678h42.4559113v48.1890596h39.3980003v-48.1890596h42.4524325v133.8662298h-42.4524325v-51.0625915h-39.3980003v51.0625915h-42.4559113Z"/>
      <path class="st0" d="M366.8750933,249.5517976l48.0012016-133.8662298h42.6472482l48.0012016,133.8662298h-45.3259643l-6.8846484-21.8019663h-39.9685321l-6.8846484,21.8019663h-39.5858583ZM423.1003014,196.1966425h20.2712713l-9.9460382-36.5279473-10.3252331,36.5279473Z"/>
      <path class="st0" d="M521.0125944,249.5517976V115.6855678h59.2865979c12.7465142,0,23.2004648,1.8472705,31.3618519,5.5452903,8.1579082,3.6980198,14.2145898,8.9893539,18.1700446,15.8740022,3.9484972,6.8846484,5.927964,15.2965128,5.927964,25.242551,0,8.9232557-2.0420862,16.7332787-6.1193009,23.4265902-4.0841724,6.6933115-10.2660926,11.8246184-18.5527184,15.3939207l28.4952778,48.3838754h-46.087833l-22.3759769-42.6472482h-7.6499958v42.6472482h-42.4559113ZM563.4685057,176.3080449h11.0940594c6.7559308,0,11.4732543-1.2454291,14.1519704-3.7293295,2.6752373-2.4873793,4.0145954-5.8966544,4.0145954-10.2313041,0-4.4598884-1.3393581-7.9352617-4.0145954-10.422641-2.6787161-2.4873793-7.3960396-3.7293295-14.1519704-3.7293295h-11.0940594v28.112604Z"/>
    </g>
  </g>
  <g>
    <path class="st2" d="M710.71426,34.4882683l-40.4170994,40.4170994c2.2385271,1.8658493,4.3036299,3.930952,6.1694792,6.1694792l40.4170994-40.4170994c1.7047245-1.7047245,1.7047245-4.4647547,0-6.1694792-1.7047245-1.7047245-4.4647547-1.7047245-6.1694792,0Z"/>
    <path class="st0" d="M639.6312024,83.2506434v23.9671885c0,2.4980348,2.0250573,4.523092,4.523092,4.523092h23.9671885c0-15.7348025-12.755478-28.4902806-28.4902806-28.4902806Z"/>
    <path class="st2" d="M687.5701034,111.7408237l.0003075.0003075,30.6295891-30.629693v-12.3389584l-31.9517961,31.9518999c.8345278,3.5428997,1.322207,7.218635,1.3218995,11.0164439Z"/>
    <path class="st2" d="M682.5998351,33.1722112h-12.3389584l-30.629693,30.629693c3.7978089-.0003075,7.4738517.4876791,11.0167514,1.322207l31.9518999-31.9518999Z"/>
    <path class="st2" d="M665.3355021,71.3212644l38.1490532-38.1490532h-12.3389584l-33.9837938,33.9837938c2.872264,1.1306407,5.6033901,2.5272602,8.1736989,4.1652594Z"/>
    <path class="st2" d="M680.0507431,86.0365054c1.6379992,2.5703088,3.0346187,5.3014349,4.1652594,8.1736989l33.9837938-33.9837938v-12.3389584l-38.1490532,38.1490532Z"/>
  </g>
</svg>