<?xml version="1.0" encoding="UTF-8"?>
<svg id="Layer_1" xmlns="http://www.w3.org/2000/svg" version="1.1" viewBox="0 0 720 419.6046296">
  <!-- Generator: Adobe Illustrator 30.2.1, SVG Export Plug-In . SVG Version: 2.1.1 Build 1)  -->
  <defs>
    <style>
      .st0 {
        fill: #fff;
      }
    </style>
  </defs>
  <g>
    <path class="st0" d="M315.6176861,49.4881118c-3.8197796,0-6.9855351-.5496586-9.4903086-1.6559336-2.5047735-1.1027961-4.4042268-2.6195757-5.6983598-4.5503386s-2.069917-4.1293975-2.3238732-6.5924248h7.6430381c.3374487,1.7429049,1.2071617,3.1831497,2.6091391,4.3311709,1.4019774,1.1445423,3.8197796,1.7185529,7.2603644,1.7185529,3.5658234,0,6.1019066-.5809683,7.6082496-1.7498626s2.2612539-2.6021814,2.2612539-4.2998612c0-1.3984986-.42442-2.5465198-1.2732599-3.4371059s-2.1568883-1.6663702-3.9171875-2.3238732-4.0006799-1.2628233-6.7176635-1.8159608c-3.057911-.6783762-5.646177-1.5376526-7.7682768-2.5778294-2.1220998-1.0401768-3.7258506-2.4317176-4.8077736-4.1711437s-1.6246239-3.9693703-1.6246239-6.6863538c0-2.2508173.6157568-4.2859458,1.8472705-6.1123432s3.0474745-3.2909941,5.4444036-4.3937902,5.3817842-1.6559336,8.9476077-1.6559336c3.4788521,0,6.3767359.5218278,8.6901726,1.5585258,2.3134367,1.0436556,4.0980878,2.4734639,5.3504746,4.2998612s1.9829457,3.927624,2.1951557,6.3036801h-7.6395593c-.3409275-1.6141874-1.200204-2.9187569-2.5813083-3.9171875-1.3776254-.9949517-3.3849231-1.4959064-6.0149353-1.4959064-3.057911,0-5.2530667.5322644-6.5924248,1.5933143-1.3358792,1.0610499-2.0038188,2.3343098-2.0038188,3.8197796,0,2.0386073.8488399,3.5658234,2.5465198,4.5851271s4.3068189,1.8890167,7.8308961,2.6091391c2.6334911.5531375,4.9260546,1.200204,6.8776907,1.9446783,1.951636.7409955,3.5866965,1.6315816,4.9017026,2.6717584,1.318485,1.0436556,2.3030001,2.3169155,2.963982,3.8232585.6575031,1.506343.9845152,3.3014307.9845152,5.3783054,0,2.4630273-.6470665,4.6616618-1.9411995,6.5924248-1.294133,1.9307629-3.2388113,3.4475425-5.8270773,4.5503386-2.588266,1.106275-5.8375139,1.6559336-9.7407859,1.6559336Z"/>
    <path class="st0" d="M352.2847875,49.1089169c-2.5499986,0-4.6164368-.3618006-6.209751-1.0854019-1.5933143-.7201224-2.7587297-1.8542282-3.5032041-3.4057962-.7409955-1.5480892-1.1132327-3.5553869-1.1132327-6.0184142v-17.5716821h-4.776464v-5.9871045h4.776464v-7.6430381h7.0029293v7.6430381h8.5962436v5.9871045h-8.5962436v16.6184766c0,1.9968611.3722372,3.3849231,1.1167115,4.1711437.7409955.7862206,2.1742826,1.175852,4.2963824,1.175852,1.2732599,0,2.5465198-.0626193,3.8197796-.1913369v5.9871045c-.8070937.0834925-1.6315816.1600272-2.4804216.2226465-.8523188.0626193-1.8263974.0974079-2.9291935.0974079Z"/>
    <path class="st0" d="M373.9928248,49.4881118c-3.9902434,0-7.0029293-1.1549789-9.0415367-3.4684156-2.0351285-2.3134367-3.0544322-5.8479504-3.0544322-10.6035413V15.040518h7.0029293v19.739007c0,2.845701.5844472,4.9886739,1.7533415,6.4323976,1.1654155,1.4437236,3.0231225,2.163846,5.5696423,2.163846,1.8681436,0,3.3849231-.4035468,4.5538174-1.2106405,1.1654155-.8036148,2.0246919-1.8646647,2.5778294-3.1831497.5531375-1.3150061.8279668-2.7169835.8279668-4.2024534V15.040518h7.0064082v33.7483445h-6.4950169v-5.7296694c-.8070937,1.7394261-2.1151421,3.245769-3.9171875,4.5190289-1.8055243,1.2732599-4.0667781,1.9098898-6.7837616,1.9098898Z"/>
    <path class="st0" d="M410.3677026,49.4881118c-2.8422222,0-5.3365592-.6366299-7.4795321-1.9098898-2.1464518-1.2732599-3.8128219-3.1935863-4.9991105-5.7609791-1.1897674-2.5673929-1.7846511-5.764458-1.7846511-9.5842376v-1.2732599c0-3.6075697.5948837-6.6446076,1.7846511-9.1076349,1.1862886-2.4595485,2.8526587-4.327692,4.9991105-5.6009519,2.1429729-1.2732599,4.6164368-1.9098898,7.4169127-1.9098898,2.5465198,0,4.7451543.5705317,6.5889459,1.7185529,1.8472705,1.1445423,3.3014307,2.6091391,4.3624806,4.3937902V4.2143302h7.0064082v44.5745323h-6.4950169v-5.6670501c-.7653475,1.6976798-2.1777614,3.1831497-4.2372419,4.4564096s-4.445973,1.9098898-7.1629565,1.9098898ZM411.9610169,43.3757686c1.6559336,0,3.1831497-.3513641,4.5851271-1.0506133,1.3984986-.6992493,2.5360832-1.7602992,3.4057962-3.1831497s1.3045695-3.1935863,1.3045695-5.315686v-4.5225078c0-1.951636-.4348565-3.57626-1.3045695-4.870393s-2.0177342-2.282127-3.4371059-2.9605032c-1.4228505-.6783762-2.9431089-1.0193037-4.5538174-1.0193037-2.6752373,0-4.7973371.8592765-6.3697782,2.5778294-1.5689623,1.7185529-2.3551829,4.3624806-2.3551829,7.928304v1.2732599c0,3.7362872.8070937,6.5263266,2.4212811,8.3735971,1.6107085,1.8472705,3.7119352,2.7691663,6.3036801,2.7691663Z"/>
    <path class="st0" d="M449.5221832,49.4881118c-2.9709397,0-5.7087963-.6261934-8.2135699-1.8785801-2.5047735-1.2489079-4.5225078-3.15184-6.0497238-5.6983598s-2.2925636-5.7714157-2.2925636-9.6781666v-1.2732599c0-3.7362872.7340378-6.8359444,2.1986345-9.2954929,1.4645967-2.4630273,3.4057962-4.2998612,5.8235985-5.5105018,2.4212811-1.2106405,5.0512933-1.812482,7.8969943-1.812482,5.1347857,0,9.0728463,1.3776254,11.8141818,4.1363552,2.7378566,2.7622086,4.1050455,6.7107057,4.1050455,11.8454915v3.5658234h-24.7068078c.0869713,2.2925636.5740106,4.139834,1.4645967,5.5383326.8905861,1.4019774,2.0386073,2.4108445,3.4405848,3.0266013,1.3984986.6157568,2.9048415.9218958,4.5190289.9218958,2.4212811,0,4.1920168-.3826737,5.3191649-1.1445423,1.1236692-.7653475,1.8994533-1.763778,2.3238732-2.9952917h7.0029293c-.6783762,3.3570923-2.3447463,5.9036121-4.9991105,7.6430381s-5.8688235,2.6091391-9.6468569,2.6091391ZM449.2056077,20.4536119c-1.5724412,0-3.0370379.2748293-4.3937902.8279668-1.3602312.5496586-2.4630273,1.4228505-3.3118672,2.6091391-.8488399,1.1897674-1.3150061,2.7830817-1.4019774,4.776464h17.7038785c-.0452251-2.1220998-.4452931-3.7780334-1.2106405-4.9678008-.7653475-1.1862886-1.7846511-2.0246919-3.057911-2.5152101-1.2732599-.4870393-2.7169835-.7305589-4.327692-.7305589Z"/>
    <path class="st0" d="M469.6055966,48.7888625V15.040518h6.4950169v5.6670501c.8070937-1.6976798,2.1220998-3.1831497,3.9484972-4.4564096s4.1815803-1.9098898,7.0690275-1.9098898c4.1154821,0,7.2151393,1.1132327,9.2954929,3.3431769,2.0803536,2.2264654,3.1205304,5.4861498,3.1205304,9.7720956v21.3323212h-7.0029293v-19.739007c0-2.845701-.5948837-4.9886739-1.7846511-6.4323976-1.1897674-1.4437236-3.1414035-2.163846-5.858387-2.163846-1.951636,0-3.5345138.4139834-4.7416754,1.2419502-1.2106405.8279668-2.1012267,1.8890167-2.6752373,3.1831497-.5740106,1.294133-.8592765,2.6856738-.8592765,4.1711437v19.739007h-7.0064082Z"/>
    <path class="st0" d="M518.9565928,49.1089169c-2.5499986,0-4.6164368-.3618006-6.209751-1.0854019-1.5933143-.7201224-2.7587297-1.8542282-3.5032041-3.4057962-.7409955-1.5480892-1.1132327-3.5553869-1.1132327-6.0184142v-17.5716821h-4.776464v-5.9871045h4.776464v-7.6430381h7.0029293v7.6430381h8.5962436v5.9871045h-8.5962436v16.6184766c0,1.9968611.3722372,3.3849231,1.1167115,4.1711437.7409955.7862206,2.1742826,1.175852,4.2963824,1.175852,1.2732599,0,2.5465198-.0626193,3.8197796-.1913369v5.9871045c-.8070937.0834925-1.6315816.1600272-2.4804216.2226465-.8523188.0626193-1.8263974.0974079-2.9291935.0974079Z"/>
    <path class="st0" d="M542.4318869,49.4881118c-2.4630273,0-4.5851271-.2748293-6.3662994-.8279668-1.7846511-.5496586-3.2596844-1.3045695-4.4250999-2.257775-1.1688943-.9566843-2.0594805-2.0490439-2.6752373-3.2805576-.6157568-1.2315137-1.0088671-2.5256466-1.1793309-3.8858778h7.0064082c.2957024,1.1897674,1.0158248,2.1777614,2.163846,2.963982,1.1445423.7827417,2.9709397,1.175852,5.4757132,1.175852,2.800476,0,4.776464-.3826737,5.9210063-1.1445423,1.1480212-.7653475,1.7220318-1.763778,1.7220318-2.9952917,0-.7201224-.2678716-1.3984986-.7966571-2.0351285-.5322644-.6366299-1.4228505-1.200204-2.6752373-1.6872433-1.2523868-.4905181-2.9813763-.8592765-5.1904474-1.1167115-1.9098898-.2539562-3.6493159-.6261934-5.221757-1.1132327-1.5689623-.4870393-2.9083204-1.1341058-4.0111165-1.9411995s-1.951636-1.7950877-2.5465198-2.9605032c-.5948837-1.1688943-.8905861-2.5360832-.8905861-4.1085244,0-1.8263974.4974759-3.4788521,1.4959064-4.9678008.9949517-1.4854699,2.5152101-2.682195,4.5538174-3.5971331,2.0351285-.9114593,4.5816482-1.3671889,7.6395593-1.3671889,2.9709397,0,5.4026574.4766027,7.2916741,1.4298082,1.8890167.9566843,3.3223038,2.2090711,4.2963824,3.7571603.9775574,1.551568,1.5724412,3.2388113,1.7846511,5.0652087h-7.0064082c-.3374487-1.318485-1.0297402-2.3343098-2.0664382-3.057911-1.0436556-.7201224-2.4734639-1.081923-4.2998612-1.081923-2.5047735,0-4.2441996.3826737-5.221757,1.1445423-.9775574.7653475-1.4645967,1.6559336-1.4645967,2.6752373,0,1.1027961.5427009,2.0490439,1.6246239,2.8352645,1.081923.7827417,3.2353325,1.3463158,6.4637072,1.6872433,1.9933823.2539562,3.7989065.6366299,5.4130939,1.1445423,1.6107085.5079124,3.0022494,1.1793309,4.1676648,2.0072977,1.1688943.8279668,2.069917,1.8368339,2.706547,3.0231225.6366299,1.1897674.9566843,2.6126179.9566843,4.2650727,0,1.9133687-.5427009,3.6423582-1.6246239,5.1904474-1.081923,1.551568-2.706547,2.7830817-4.870393,3.694541-2.163846.9114593-4.8808295,1.3671889-8.1509505,1.3671889Z"/>
    <path class="st0" d="M578.7267512,48.7888625V4.2143302h29.6119893v6.6237344h-21.9689512v12.6699794h20.0590614v6.6237344h-20.0590614v18.6570839h-7.6430381Z"/>
    <path class="st0" d="M617.7420777,11.2207384c-1.3150061,0-2.3864926-.4139834-3.2144594-1.2419502s-1.2419502-1.8994533-1.2419502-3.2179382c0-1.3150061.4139834-2.3864926,1.2419502-3.2144594s1.8994533-1.2419502,3.2144594-1.2419502,2.3864926.4139834,3.2144594,1.2419502,1.2419502,1.8994533,1.2419502,3.2144594c0,1.318485-.4139834,2.3899714-1.2419502,3.2179382s-1.8994533,1.2419502-3.2144594,1.2419502ZM614.2388737,48.7888625V15.040518h7.0064082v33.7483445h-7.0064082Z"/>
    <path class="st0" d="M627.9872973,48.7888625V15.040518h6.4950169v5.7296694c.4661662-1.1862886,1.1167115-2.2612539,1.9446783-3.2144594.824488-.9566843,1.8437916-1.7289895,3.0544322-2.3238732s2.5778294-.8905861,4.1085244-.8905861c1.0610499,0,1.8542282.0417462,2.3864926.1252387.5322644.0869713.9010227.1704638,1.1132327.2539562v6.3697782c-.7201224-.21221-1.3776254-.3722372-1.9725092-.4766027-.5948837-.1078444-1.3150061-.1600272-2.163846-.1600272-1.8263974,0-3.3327403.4139834-4.5225078,1.2419502s-2.0594805,1.8890167-2.6091391,3.1831497c-.5531375,1.294133-.8279668,2.6856738-.8279668,4.1711437v19.739007h-7.0064082Z"/>
    <path class="st0" d="M663.9481917,49.4881118c-2.4630273,0-4.5851271-.2748293-6.3662994-.8279668-1.7846511-.5496586-3.2596844-1.3045695-4.4250999-2.257775-1.1688943-.9566843-2.0594805-2.0490439-2.6752373-3.2805576s-1.0088671-2.5256466-1.1793309-3.8858778h7.0064082c.2957024,1.1897674,1.0158248,2.1777614,2.163846,2.963982,1.1445423.7827417,2.9709397,1.175852,5.4757132,1.175852,2.800476,0,4.776464-.3826737,5.9210063-1.1445423,1.1480212-.7653475,1.7220318-1.763778,1.7220318-2.9952917,0-.7201224-.2678716-1.3984986-.7966571-2.0351285-.5322644-.6366299-1.4228505-1.200204-2.6752373-1.6872433-1.2523868-.4905181-2.9813763-.8592765-5.1904474-1.1167115-1.9098898-.2539562-3.6493159-.6261934-5.221757-1.1132327-1.5689623-.4870393-2.9083204-1.1341058-4.0111165-1.9411995s-1.951636-1.7950877-2.5465198-2.9605032c-.5948837-1.1688943-.8905861-2.5360832-.8905861-4.1085244,0-1.8263974.4974759-3.4788521,1.4959064-4.9678008.9949517-1.4854699,2.5152101-2.682195,4.5538174-3.5971331,2.0351285-.9114593,4.5816482-1.3671889,7.6395593-1.3671889,2.9709397,0,5.4026574.4766027,7.2916741,1.4298082,1.8890167.9566843,3.3223038,2.2090711,4.2963824,3.7571603.9775574,1.551568,1.5724412,3.2388113,1.7846511,5.0652087h-7.0064082c-.3374487-1.318485-1.0297402-2.3343098-2.0664382-3.057911-1.0436556-.7201224-2.4734639-1.081923-4.2998612-1.081923-2.5047735,0-4.2441996.3826737-5.221757,1.1445423-.9775574.7653475-1.4645967,1.6559336-1.4645967,2.6752373,0,1.1027961.5427009,2.0490439,1.6246239,2.8352645,1.081923.7827417,3.2353325,1.3463158,6.4637072,1.6872433,1.9933823.2539562,3.7989065.6366299,5.4130939,1.1445423,1.6107085.5079124,3.0022494,1.1793309,4.1676648,2.0072977,1.1688943.8279668,2.069917,1.8368339,2.706547,3.0231225.6366299,1.1897674.9566843,2.6126179.9566843,4.2650727,0,1.9133687-.5427009,3.6423582-1.6246239,5.1904474-1.081923,1.551568-2.706547,2.7830817-4.870393,3.694541-2.163846.9114593-4.8808295,1.3671889-8.1509505,1.3671889Z"/>
    <path class="st0" d="M696.6563594,49.1089169c-2.5499986,0-4.6164368-.3618006-6.209751-1.0854019-1.5933143-.7201224-2.7587297-1.8542282-3.5032041-3.4057962-.7409955-1.5480892-1.1132327-3.5553869-1.1132327-6.0184142v-17.5716821h-4.776464v-5.9871045h4.776464v-7.6430381h7.0029293v7.6430381h8.5962436v5.9871045h-8.5962436v16.6184766c0,1.9968611.3722372,3.3849231,1.1167115,4.1711437.7409955.7862206,2.1742826,1.175852,4.2963824,1.175852,1.2732599,0,2.5465198-.0626193,3.8197796-.1913369v5.9871045c-.8070937.0834925-1.6315816.1600272-2.4804216.2226465-.8523188.0626193-1.8263974.0974079-2.9291935.0974079Z"/>
    <path class="st0" d="M712.8017121,49.4881118c-.9323324,0-1.7950877-.2226465-2.5778294-.6679396-.7862206-.4452931-1.4019774-1.0610499-1.8472705-1.8472705-.4452931-.7827417-.6679396-1.6420182-.6679396-2.5778294,0-1.4854699.4870393-2.706547,1.4645967-3.6597524.9740786-.9566843,2.1847191-1.4332871,3.6284428-1.4332871s2.6543642.4766027,3.6284428,1.4332871c.9775574.9532055,1.4645967,2.1742826,1.4645967,3.6597524,0,.9358112-.2226465,1.7950877-.6679396,2.5778294-.4452931.7862206-1.0506133,1.4019774-1.812482,1.8472705-.7653475.4452931-1.6350605.6679396-2.6126179.6679396Z"/>
  </g>
  <g>
    <path class="st0" d="M50.0517647,386.5034483H6.1625663c-2.4108445,0-4.3625663-1.951636-4.3625663-4.3624806V91.4793938c0-2.4108445,1.9517218-4.3624806,4.3625663-4.3624806h43.8891984c2.4108445,0,4.3624806,1.951636,4.3624806,4.3624806s-1.951636,4.3624806-4.3624806,4.3624806H10.5250469v281.9366128h39.5267178c2.4108445,0,4.3624806,1.951636,4.3624806,4.3624806s-1.951636,4.3624806-4.3624806,4.3624806Z"/>
    <path class="st0" d="M635.7590529,87.1169132h-379.6687922c-2.4108445,0-4.3624806,1.951636-4.3624806,4.3624806s1.951636,4.3624806,4.3624806,4.3624806h370.9438311l8.7249611-8.7249611Z"/>
    <path class="st0" d="M709.4751427,178.355231v199.4232561h-39.5267178c-2.4108445,0-4.3624806,1.951636-4.3624806,4.3624806s1.951636,4.3624806,4.3624806,4.3624806h43.8891984c2.4108445,0,4.3623767-1.951636,4.3623767-4.3624806v-212.5106978l-8.7248573,8.7249611Z"/>
  </g>
  <g>
    <g>
      <path class="st0" d="M80.3950997,126.0541682V55.9552979h22.5290464c7.0759852,0,13.1187514,1.2523868,18.1248196,3.7571603s8.8258478,6.2410607,11.4662966,11.2158193c2.6369699,4.9747585,3.9554549,11.1636365,3.9554549,18.5770703v2.00034c0,7.4760532-1.3706677,13.786691-4.1050455,18.9249556-2.7378566,5.1417434-6.6933115,9.0276213-11.8663646,11.6645912-5.176532,2.6404488-11.3654099,3.9589337-18.5770703,3.9589337h-21.5271369ZM92.4110549,115.6384849h8.5092723c4.6060002,0,8.6275533-.7862206,12.068138-2.351704,3.4371059-1.5689623,6.1088643-4.1224398,8.0117964-7.6604324,1.8994533-3.5414715,2.8526587-8.2448795,2.8526587-14.1206608v-2.00034c0-5.4757132-.9671209-9.9147286-2.9048415-13.3205248s-4.5538174-5.8896966-7.858727-7.4621378c-3.3049095-1.5654835-7.0272813-2.351704-11.1671153-2.351704h-9.5111817v49.2675038Z"/>
      <path class="st0" d="M147.8952675,126.0541682V55.9552979h26.5332052c5.8757812,0,10.7670473.9392901,14.6703194,2.8039548,3.9067509,1.8716224,6.8602964,4.4424942,8.8641152,7.7126152,2.00034,3.2735998,3.0022494,7.0446756,3.0022494,11.316706,0,4.8042948-1.3010907,8.9615231-3.9032721,12.4647272-2.6056602,3.5032041-6.5089323,6.0253719-11.716774,7.5595457l17.6238649,28.2413216h-13.2196381l-15.5191593-26.8358653h-14.3189553v26.8358653h-12.0159552ZM159.9112227,89.2026876h12.5169099c6.140174,0,10.4295987-1.0019094,12.8647952-3.0022494,2.4386753-2.0038188,3.6562736-4.8077736,3.6562736-8.4118644s-1.2175982-6.4080456-3.6562736-8.4118644c-2.4351965-2.0038188-6.7246212-3.0057282-12.8647952-3.0057282h-12.5169099v22.8317065Z"/>
      <path class="st0" d="M218.8847239,127.0560776c-1.269781,0-2.4386753-.3200544-3.5066829-.9532055s-1.9203264-1.4854699-2.5534775-2.5534775-.9497266-2.2369019-.9497266-3.5066829c0-2.00034.681855-3.6667101,2.0525228-5.0060682,1.3671889-1.3324004,3.0196436-2.00034,4.9573643-2.00034,1.9342418,0,3.5866965.6679396,4.9538854,2.00034,1.3706677,1.3393581,2.0560016,3.0057282,2.0560016,5.0060682,0,1.269781-.3200544,2.4386753-.9532055,3.5066829-.6366299,1.0680076-1.4680756,1.9203264-2.5047735,2.5534775-1.0332191.6331511-2.2195077.9532055-3.551908.9532055Z"/>
    </g>
    <g>
      <path class="st0" d="M80.3950997,417.3001892v-70.0953915h46.5609568v10.4156833h-34.5450016v19.926865h31.5427522v10.4122044h-31.5427522v29.3406388h-12.0159552Z"/>
      <path class="st0" d="M141.2054348,417.3001892v-70.0953915h12.0194341v70.0953915h-12.0194341Z"/>
      <path class="st0" d="M190.6851486,417.3001892v-59.6797082h-23.5309558v-10.4156833h59.0778668v10.4156833h-23.5309558v59.6797082h-12.0159552Z"/>
      <path class="st0" d="M236.6755737,417.3001892v-9.410295l37.6516165-50.2694132h-36.6497071v-10.4156833h51.0695492v9.4137739l-37.6516165,50.2694132h38.653526v10.4122044h-53.073368Z"/>
      <path class="st0" d="M318.9573841,417.3001892l-18.5248876-70.0953915h12.4160232l13.3170459,52.0714586,15.3208648-52.0714586h10.0156153l16.2218875,52.0714586,13.2161592-52.0714586h11.6158872l-18.5248876,70.0953915h-12.0159552l-15.9227062-52.0714586-15.1190913,52.0714586h-12.0159552Z"/>
      <path class="st0" d="M390.1555717,417.3001892l26.536684-70.0953915h12.0159552l26.536684,70.0953915h-12.8195701l-5.9070909-15.8218195h-28.4396161l-5.9070909,15.8218195h-12.0159552ZM411.9853688,391.0661654h20.6261142l-10.2139098-28.8396841-10.4122044,28.8396841Z"/>
      <path class="st0" d="M475.7492494,417.3001892v-59.6797082h-23.5309558v-10.4156833h59.0778668v10.4156833h-23.5309558v59.6797082h-12.0159552Z"/>
      <path class="st0" d="M523.6878317,417.3001892v-70.0953915h47.0619115v10.4156833h-35.0459563v18.4240009h32.0437069v10.4156833h-32.0437069v20.4278197h35.0459563v10.4122044h-47.0619115Z"/>
      <path class="st0" d="M584.5086034,417.3001892v-70.0953915h26.5332052c5.8757812,0,10.7670473.9358112,14.6703194,2.8039548,3.9067509,1.8716224,6.8602964,4.4424942,8.8641152,7.7126152,2.00034,3.270121,3.0022494,7.0411967,3.0022494,11.3132271,0,4.8077736-1.3010907,8.9615231-3.9032721,12.468206-2.6056602,3.5032041-6.5089323,6.0253719-11.716774,7.5595457l17.6238649,28.2378427h-13.2196381l-15.5191593-26.8358653h-14.3189553v26.8358653h-12.0159552ZM596.5245586,380.4521875h12.5169099c6.140174,0,10.4295987-1.0019094,12.8647952-3.0057282,2.4386753-2.0038188,3.6562736-4.8077736,3.6562736-8.4118644s-1.2175982-6.4080456-3.6562736-8.4118644c-2.4351965-2.00034-6.7246212-3.0022494-12.8647952-3.0022494h-12.5169099v22.8317065Z"/>
    </g>
    <g>
      <path class="st0" d="M145.247861,306.1752158c-12.4960368,0-23.6527156-2.2647327-33.4665574-6.7907193-9.8207995-4.5225078-17.4986262-11.8246184-23.0473953-21.8958953-5.5452903-10.0712769-8.3179354-23.4578999-8.3179354-40.1598689v-3.6354005c0-11.855928,1.6559336-21.9898243,4.9712797-30.4051676,3.3153461-8.4153433,7.9387405-15.2999916,13.8667046-20.6539451s12.843922-9.3059294,20.7478741-11.855928,16.3192953-3.8267373,25.2460299-3.8267373c8.1579082,0,15.8392137.9566843,23.0439165,2.870053,7.2012239,1.9098898,13.5779598,4.93997,19.1232501,9.0832829,5.5452903,4.1433129,10.0086576,9.5320548,13.386623,16.1592681,3.3779654,6.6306922,5.3226438,14.725981,5.834035,24.2858667h-42.8385851c-.894065-6.6272133-3.0926995-11.2158193-6.5993825-13.7658179-3.5066829-2.5499986-7.4899686-3.8267373-11.949857-3.8267373-3.9554549,0-7.5560668,1.0227825-10.8053147,3.0613899-3.2527267,2.0386073-5.834035,5.3852631-7.7474037,10.0399672-1.9098898,4.6547041-2.8665742,10.9305534-2.8665742,18.8345054v3.8267373c0,6.2480184.5740106,11.504564,1.7185529,15.7765944,1.1480212,4.2720304,2.6787161,7.7439248,4.5920848,10.422641,1.9133687,2.6752373,4.1746225,4.6233945,6.7872405,5.8305562,2.6126179,1.2141194,5.3852631,1.8194397,8.3214143,1.8194397,4.9712797,0,9.1111137-1.3080484,12.4299386-3.9206663,3.3118672-2.6126179,5.3539534-7.1733931,6.1193009-13.6753677h42.8385851c-.5113913,9.692082-2.3899714,17.8812999-5.6426981,24.5746114-3.2527267,6.6933115-7.6186862,12.0820534-13.1013571,16.1592681-5.4826709,4.0841724-11.855928,7.0481544-19.1232501,8.8954249-7.2673221,1.8437916-15.1086548,2.7726451-23.5205192,2.7726451Z"/>
      <path class="st0" d="M226.8860838,303.4964997v-133.8662298h42.4559113v48.1890596h39.3980003v-48.1890596h42.4524325v133.8662298h-42.4524325v-51.0625915h-39.3980003v51.0625915h-42.4559113Z"/>
      <path class="st0" d="M366.8750933,303.4964997l48.0012016-133.8662298h42.6472482l48.0012016,133.8662298h-45.3259643l-6.8846484-21.8019663h-39.9685321l-6.8846484,21.8019663h-39.5858583ZM423.1003014,250.1413446h20.2712713l-9.9460382-36.5279473-10.3252331,36.5279473Z"/>
      <path class="st0" d="M521.0125944,303.4964997v-133.8662298h59.2865979c12.7465142,0,23.2004648,1.8472705,31.3618519,5.5452903,8.1579082,3.6980198,14.2145898,8.9893539,18.1700446,15.8740022,3.9484972,6.8846484,5.927964,15.2965128,5.927964,25.242551,0,8.9232557-2.0420862,16.7332787-6.1193009,23.4265902-4.0841724,6.6933115-10.2660926,11.8246184-18.5527184,15.3939207l28.4952778,48.3838754h-46.087833l-22.3759769-42.6472482h-7.6499958v42.6472482h-42.4559113ZM563.4685057,230.252747h11.0940594c6.7559308,0,11.4732543-1.2454291,14.1519704-3.7293295,2.6752373-2.4873793,4.0145954-5.8966544,4.0145954-10.2313041,0-4.4598884-1.3393581-7.9352617-4.0145954-10.422641-2.6787161-2.4873793-7.3960396-3.7293295-14.1519704-3.7293295h-11.0940594v28.112604Z"/>
    </g>
  </g>
  <g>
    <path class="st0" d="M710.71426,88.4329704l-40.4170994,40.4170994c2.2385271,1.8658493,4.3036299,3.930952,6.1694792,6.1694792l40.4170994-40.4170994c1.7047245-1.7047245,1.7047245-4.4647547,0-6.1694792-1.7047245-1.7047245-4.4647547-1.7047245-6.1694792,0Z"/>
    <path class="st0" d="M639.6312024,137.1953455v23.9671885c0,2.4980348,2.0250573,4.523092,4.523092,4.523092h23.9671885c0-15.7348025-12.755478-28.4902806-28.4902806-28.4902806Z"/>
    <path class="st0" d="M687.5701034,165.6855258l.0003075.0003075,30.6295891-30.629693v-12.3389584l-31.9517961,31.9518999c.8345278,3.5428997,1.322207,7.218635,1.3218995,11.0164439Z"/>
    <path class="st0" d="M682.5998351,87.1169132h-12.3389584l-30.629693,30.629693c3.7978089-.0003075,7.4738517.4876791,11.0167514,1.322207l31.9518999-31.9518999Z"/>
    <path class="st0" d="M665.3355021,125.2659665l38.1490532-38.1490532h-12.3389584l-33.9837938,33.9837938c2.872264,1.1306407,5.6033901,2.5272602,8.1736989,4.1652594Z"/>
    <path class="st0" d="M680.0507431,139.9812075c1.6379992,2.5703088,3.0346187,5.3014349,4.1652594,8.1736989l33.9837938-33.9837938v-12.3389584l-38.1490532,38.1490532Z"/>
  </g>
</svg>