<?xml version="1.0" encoding="UTF-8"?>
<svg id="Layer_1" xmlns="http://www.w3.org/2000/svg" version="1.1" viewBox="0 0 720 475.3303313">
  <!-- Generator: Adobe Illustrator 30.2.1, SVG Export Plug-In . SVG Version: 2.1.1 Build 1)  -->
  <defs>
    <style>
      .st0 {
        fill: #76328e;
      }

      .st1 {
        fill: #bd9bcd;
      }

      .st2 {
        fill: #00a0a2;
      }

      .st3 {
        fill: #e99f00;
      }
    </style>
  </defs>
  <g>
    <path class="st2" d="M266.5060073,439.4685135h-6.6967903v9.6746878h6.7454943c2.3134367,0,3.9206663-.400068,4.8112525-1.1932463.894065-.7931783,1.3393581-1.9655515,1.3393581-3.5205984s-.4383354-2.7691663-1.3115273-3.645837c-.8766707-.8766707-2.5047735-1.3150061-4.8877872-1.3150061Z"/>
    <path class="st2" d="M270.0022537,433.2204951c.8105725-.7966571,1.2175982-1.8681436,1.2175982-3.2248959,0-1.388062-.3965891-2.4491119-1.1932463-3.176192-.7931783-.7270801-2.1986345-1.0888807-4.2163688-1.0888807h-6.0010199v8.6797361h5.952316c2.0142554,0,3.4301482-.3965891,4.2407207-1.1897674Z"/>
    <path class="st2" d="M205.9635438,434.3337278c-.9740786-.5774895-2.0907901-.8662342-3.3466557-.8662342-1.2593445,0-2.3725771.2887447-3.3466557.8662342-.9775574.5809683-1.7463838,1.4158928-2.3099578,2.5047735-.5600952,1.0923596-.8418822,2.4491119-.8418822,4.070257v.9914729c0,1.7846511.281787,3.2666421.8418822,4.4390153.563574,1.1723732,1.3324004,2.0490439,2.3099578,2.6300122.9740786.5774895,2.0873113.8662342,3.3466557.8662342,1.2558656,0,2.3725771-.2887447,3.3466557-.8662342.9775574-.5809683,1.7463838-1.4645967,2.3099578-2.6543642.5600952-1.1897674.8418822-2.6613219.8418822-4.4146633v-.9914729c0-1.6211451-.281787-2.9778974-.8418822-4.070257-.563574-1.0888807-1.3324004-1.9238052-2.3099578-2.5047735Z"/>
    <path class="st2" d="M379.17907,434.187616c-.9914729-.4800816-2.1186209-.7201224-3.3744866-.7201224-1.7846511,0-3.2388113.6192357-4.3659594,1.8611859-1.1236692,1.2384714-1.6837644,3.0996572-1.6837644,5.5800788v.9914729c0,2.7100258.5774895,4.7103658,1.7324684,6.0010199,1.1619366,1.2906541,2.5987025,1.9342418,4.3172555,1.9342418,1.3254427,0,2.4734639-.2469985,3.4475425-.7444744.9740786-.493997,1.7359472-1.2628233,2.282127-2.306479.5461798-1.0401768.8210091-2.3377886.8210091-3.8928355v-2.9778974c0-1.4541602-.2852659-2.6508853-.8453611-3.5936542-.563574-.9427689-1.3393581-1.6524548-2.3308309-2.1325364Z"/>
    <path class="st2" d="M301.0127416,434.3337278c-.9740786-.5774895-2.0907901-.8662342-3.3466557-.8662342-1.2593445,0-2.3725771.2887447-3.3466557.8662342-.9775574.5809683-1.7463838,1.4158928-2.3099578,2.5047735-.5600952,1.0923596-.8418822,2.4491119-.8418822,4.070257v.9914729c0,1.7846511.281787,3.2666421.8418822,4.4390153.563574,1.1723732,1.3324004,2.0490439,2.3099578,2.6300122.9740786.5774895,2.0873113.8662342,3.3466557.8662342,1.2558656,0,2.3725771-.2887447,3.3466557-.8662342.9775574-.5809683,1.7463838-1.4645967,2.3099578-2.6543642.5600952-1.1897674.8418822-2.6613219.8418822-4.4146633v-.9914729c0-1.6211451-.281787-2.9778974-.8418822-4.070257-.563574-1.0888807-1.3324004-1.9238052-2.3099578-2.5047735Z"/>
    <path class="st2" d="M322.4529072,444.5024126c-.7131647.5809683-1.0680076,1.36371-1.0680076,2.3586617,0,1.057571.3652795,1.8994533,1.0923596,2.5291255s1.78813.9427689,3.1727131.9427689c1.0610499,0,2.0768747-.1913369,3.0544322-.5705317.9740786-.3791949,1.7672569-.9775574,2.3795349-1.78813.612278-.8070937.918417-1.8403128.918417-3.0996572v-1.2384714h-6.5959036c-1.2593445,0-2.2403808.2887447-2.9535455.8662342Z"/>
    <path class="st2" d="M456.5870086,427.2159963c-1.4402448-.6609819-3.0335591-.9914729-4.7869005-.9914729h-4.1676648v22.4212019h3.670189c1.8194397,0,3.4718944-.3478852,4.9608431-1.0401768,1.4854699-.6957704,2.6856738-1.8437916,3.5936542-3.4475425.9114593-1.6037508,1.3671889-3.764118,1.3671889-6.4741438v-.9914729c0-2.5813083-.4139834-4.6407887-1.2419502-6.1784414s-1.9585937-2.6334911-3.3953597-3.2979518Z"/>
    <path class="st2" d="M713.8522544,401.0526367H6.1624123c-2.4088877,0-4.3618283,1.9529406-4.3618283,4.3618283v64.1152447c0,2.4010603,1.9464178,4.3472606,4.3472606,4.3472606h707.6900595c2.4088877,0,4.3616109-1.9527232,4.3616109-4.3616109v-64.1154621c0-2.4008428-1.9464178-4.3472606-4.3472606-4.3472606ZM94.3237003,450.4303766c-1.1097538,1.5898354-2.7100258,2.8109125-4.8112525,3.670189-2.1012267.8592765-4.6547041,1.2906541-7.6639112,1.2906541-3.0753053,0-5.6392193-.4313777-7.691742-1.2906541-2.0490439-.8592765-3.6110485-2.0560016-4.682535-3.5936542-1.0784442-1.5376526-1.6628913-3.3327403-1.763778-5.3817842h7.4412647c.2643928,1.2871753.869713,2.2786481,1.8090031,2.9744186.9462478.6957704,2.5743506,1.0436556,4.8877872,1.0436556,2.3795349,0,4.0911301-.3235332,5.1313069-.9705997,1.0436556-.6435876,1.5654835-1.5620046,1.5654835-2.751772,0-.9914729-.306139-1.8020454-.918417-2.4317176-.612278-.6261934-1.5446103-1.1654155-2.8039548-1.6107085-1.2558656-.4452931-2.894405-.8662342-4.9121392-1.2663022-2.3447463-.4626873-4.3624806-1.106275-6.0497238-1.9342418-1.6872433-.824488-2.9674609-1.9481572-3.8441316-3.3710077s-1.3150061-3.2248959-1.3150061-5.4061362c0-2.0177342.5357432-3.764118,1.6141874-5.2356724,1.0714865-1.4680756,2.5952237-2.6195757,4.564254-3.4475425,1.9655515-.824488,4.2894247-1.2384714,6.9681408-1.2384714,2.9083204,0,5.2982918.4035468,7.1664354,1.2141194s3.2909941,1.9446783,4.2685516,3.3988385c.9740786,1.4541602,1.5446103,3.176192,1.7115952,5.1591377h-7.3925608c-.2678716-1.1897674-.8105725-2.0768747-1.6385394-2.6543642s-2.1986345-.8662342-4.1154821-.8662342c-1.951636,0-3.3918808.3130967-4.3172555.9392901-.9253747.6296722-1.388062,1.4750333-1.388062,2.5326043,0,1.2871753.6366299,2.2960424,1.9098898,3.0231225,1.2732599.7305589,3.2840364,1.3567523,6.0253719,1.8855379,1.8855379.3652795,3.5623446.8105725,5.0373779,1.3393581,1.4680756.5287855,2.7204624,1.2175982,3.7432449,2.0594805s1.8020454,1.8611859,2.3308309,3.0509533c.5287855,1.1897674.7931783,2.6300122.7931783,4.3137766,0,2.1186209-.5531375,3.9693703-1.6594125,5.5557268ZM107.950364,446.4366543c.5427009,1.175852,1.2871753,2.0351285,2.2299442,2.5813083s2.0072977.8175302,3.200544.8175302c1.2906541,0,2.4038868-.3374487,3.3466557-1.0158248.9427689-.6783762,1.5793989-1.6454971,1.9098898-2.9013627h6.6480864c-.1982946,1.8855379-.8279668,3.5553869-1.8855379,5.0095471-1.0610499,1.4541602-2.4560696,2.563914-4.1920168,3.3223038-1.7359472.7618686-3.6806255,1.1410635-5.8270773,1.1410635-2.4143234,0-4.5955637-.5044336-6.5506786-1.5133007-1.9481572-1.0088671-3.4927675-2.5117312-4.633831-4.5120712-1.1410635-2.00034-1.7115952-4.4911981-1.7115952-7.4656167v-.9914729c0-2.845701.5914049-5.2252359,1.7846511-7.1455623,1.1897674-1.9168475,2.7587297-3.3710077,4.7138446-4.3624806,1.9481572-.9949517,4.0841724-1.4889487,6.3976091-1.4889487,2.4804216,0,4.5781694.4139834,6.3002012,1.2384714,1.7185529.8279668,3.0474745,1.9690303,3.9937222,3.4231905.9392901,1.457639,1.4750333,3.0613899,1.6107085,4.8112525h-6.6480864c-.2643928-1.1897674-.800136-2.1394941-1.6107085-2.8526587-.8105725-.7096858-2.0281708-1.0645288-3.645837-1.0645288-1.1236692,0-2.1603672.2643928-3.0996572.7931783-.9462478.5287855-1.7046375,1.3393581-2.282127,2.4317176-.5774895,1.0888807-.869713,2.494337-.869713,4.2163688v.9914729c0,1.8507493.2713505,3.36405.8210091,4.5364232ZM154.344336,454.796336h-6.5471997v-15.3278225c0-1.951636-.4070257-3.4371059-1.2175982-4.4633673s-2.1916768-1.5376526-4.139834-1.5376526c-1.3915408,0-2.5152101.281787-3.3744866.8418822-.8592765.563574-1.4889487,1.2976118-1.8855379,2.2090711-.3965891.9079804-.5948837,1.8924956-.5948837,2.9500666v15.3278225h-6.4950169v-34.7224231h6.4950169v12.0542226c.3965891-.6609819.9497266-1.3150061,1.6628913-1.9585937.7096858-.6470665,1.6037508-1.1828097,2.6752373-1.6141874,1.0784442-.4278988,2.3725771-.6435876,3.8963144-.6435876,3.2075017,0,5.5974731.8592765,7.1664354,2.5778294,1.5724412,1.7220318,2.3586617,4.2024534,2.3586617,7.4412647v16.8654751ZM185.5183299,441.9002312c0,2.9744186-.5948837,5.4652767-1.7846511,7.4656167-1.1897674,2.00034-2.7865606,3.5032041-4.7869005,4.5120712-2.0038188,1.0088671-4.1920168,1.5133007-6.5750305,1.5133007-2.3795349,0-4.5712117-.4870393-6.5680728-1.4645967-2.0038188-.9740786-3.5971331-2.4630273-4.7869005-4.4633673-1.1932463-2.00034-1.78813-4.5225078-1.78813-7.5630245v-.9914729c0-2.8770107.5948837-5.2739398,1.78813-7.1942662,1.1897674-1.9168475,2.7830817-3.36405,4.7869005-4.3381286,1.9968611-.9775574,4.188538-1.4645967,6.5680728-1.4645967,2.3830137,0,4.5712117.4870393,6.5750305,1.4645967,2.00034.9740786,3.5971331,2.4212811,4.7869005,4.3381286,1.1897674,1.9203264,1.7846511,4.3172555,1.7846511,7.1942662v.9914729ZM215.7599914,441.9002312c0,2.9744186-.5914049,5.4652767-1.7846511,7.4656167-1.1897674,2.00034-2.7865606,3.5032041-4.7834217,4.5120712-2.0038188,1.0088671-4.1954957,1.5133007-6.5750305,1.5133007s-4.5712117-.4870393-6.5715517-1.4645967c-2.00034-.9740786-3.5971331-2.4630273-4.7869005-4.4633673-1.1932463-2.00034-1.7846511-4.5225078-1.7846511-7.5630245v-.9914729c0-2.8770107.5914049-5.2739398,1.7846511-7.1942662,1.1897674-1.9168475,2.7865606-3.36405,4.7869005-4.3381286,2.00034-.9775574,4.1920168-1.4645967,6.5715517-1.4645967s4.5712117.4870393,6.5750305,1.4645967c1.9968611.9740786,3.5936542,2.4212811,4.7834217,4.3381286,1.1932463,1.9203264,1.7846511,4.3172555,1.7846511,7.1942662v.9914729ZM232.7263532,454.8972227c-.163506.0626193-.4452931.1148021-.8453611.1461118-.3965891.0347885-.8070937.0521828-1.2384714.0521828h-1.0923596c-2.0177342,0-3.6597524-.2748293-4.9330123-.8210091-1.2732599-.5461798-2.2055922-1.4715544-2.8039548-2.776124-.5948837-1.3080484-.8905861-3.1344458-.8905861-5.4826709v-25.9418003h6.4984958v25.148622c0,1.6872433.2365619,2.8283068.7166435,3.4231905s1.4298082.894065,2.8526587.894065c.3618006,0,.6783762-.0104366.9427689-.0278308.2643928-.0139154.5287855-.0382674.7931783-.0730559v5.458319ZM278.8559324,450.1590261c-.824488,1.4715544-2.1325364,2.6126179-3.9171875,3.4231905-1.7846511.8105725-4.1363552,1.2141194-7.0446756,1.2141194h-15.4739343v-34.7224231h14.8268678c3.9032721,0,6.7733251.8175302,8.6066802,2.4560696,1.8368339,1.6350605,2.7552509,3.9102298,2.7552509,6.8185502,0,1.78813-.4383354,3.3153461-1.3150061,4.588606s-2.0594805,2.1916768-3.5484292,2.7552509c1.9864246.4626873,3.5414715,1.3950197,4.6651407,2.800476,1.1236692,1.4054563,1.6872433,3.2353325,1.6872433,5.4826709,0,1.9829457-.4174623,3.7119352-1.2419502,5.1834897ZM310.8091891,441.9002312c0,2.9744186-.5914049,5.4652767-1.7846511,7.4656167-1.1897674,2.00034-2.7865606,3.5032041-4.7834217,4.5120712-2.0038188,1.0088671-4.1954957,1.5133007-6.5750305,1.5133007s-4.5712117-.4870393-6.5715517-1.4645967c-2.00034-.9740786-3.5971331-2.4630273-4.7869005-4.4633673-1.1932463-2.00034-1.7846511-4.5225078-1.7846511-7.5630245v-.9914729c0-2.8770107.5914049-5.2739398,1.7846511-7.1942662,1.1897674-1.9168475,2.7865606-3.36405,4.7869005-4.3381286,2.00034-.9775574,4.1920168-1.4645967,6.5715517-1.4645967s4.5712117.4870393,6.5750305,1.4645967c1.9968611.9740786,3.5936542,2.4212811,4.7834217,4.3381286,1.1932463,1.9203264,1.7846511,4.3172555,1.7846511,7.1942662v.9914729ZM332.7955346,454.796336c-.1321964-.7270801-.2087311-1.2802176-.2226465-1.6628913-.0173943-.3791949-.0278308-.9497266-.0278308-1.7115952-.6922916,1.0610499-1.7811723,1.9864246-3.270121,2.7796028-1.4889487.7931783-3.3744866,1.1897674-5.6566136,1.1897674-1.8855379,0-3.4892887-.3548429-4.8112525-1.0645288-1.3254427-.7131647-2.3308309-1.694201-3.0231225-2.9535455-.6957704-1.2558656-1.0436556-2.6787161-1.0436556-4.2650727,0-2.6439276.7862206-4.6303522,2.3551829-5.952316s3.927624-1.9829457,7.0690275-1.9829457h7.8378538v-1.2419502c0-1.7185529-.3896314-2.9257146-1.1688943-3.6214851-.7723052-.6922916-2.0038188-1.0401768-3.694541-1.0401768-1.4889487,0-2.5604352.2574351-3.2214171.7688263s-1.0436556,1.1480212-1.1410635,1.9098898h-6.5471997c.0974079-1.5202584.5844472-2.8839684,1.4611179-4.094609.8766707-1.2036828,2.1360152-2.163846,3.7710757-2.8770107,1.6350605-.7096858,3.6110485-1.0645288,5.927964-1.0645288,2.2473385,0,4.2094111.330491,5.8792601.9914729,1.669849.6609819,2.963982,1.7289895,3.8893567,3.200544s1.3915408,3.4475425,1.3915408,5.927964v10.067798c0,1.388062.024352,2.6056602.0765347,3.645837.0487039,1.0436556.1391541,2.0594805.2713505,3.0509533h-6.1019066ZM359.9653697,434.0136734c-.3270121-.1321964-.7514321-.2574351-1.2628233-.3722372s-1.200204-.1739426-2.0560016-.1739426c-1.3254427,0-2.3934503.281787-3.200544.8418822-.8140514.563574-1.3984986,1.2976118-1.7602992,2.2090711-.3652795.9079804-.5496586,1.8924956-.5496586,2.9500666v15.3278225h-6.4950169v-26.2896855h5.952316v3.9171875c.3618006-.7583898.8592765-1.4680756,1.4889487-2.1325364.6261934-.6609819,1.4054563-1.2210771,2.3308309-1.6837644s1.9481572-.6957704,3.0753053-.6957704c.6261934,0,1.1654155.0313097,1.6107085.0974079.4487719.069577.7340378.1356752.8662342.1982946v5.8062042ZM388.8502789,454.796336h-6.0497238v-3.8684836c-.6609819,1.1897674-1.7046375,2.2299442-3.1240092,3.1240092-1.4263294.894065-3.2283748,1.3393581-5.4096151,1.3393581-2.2786481,0-4.258115-.493997-5.9244852-1.4889487-1.6733279-.9914729-2.963982-2.4873793-3.8719624-4.4877192s-1.36371-4.5051135-1.36371-7.5143206v-.9914729c0-2.845701.4557296-5.2252359,1.36371-7.1455623.9079804-1.9168475,2.2090711-3.3710077,3.8928355-4.3624806,1.6872433-.9949517,3.6527947-1.4889487,5.9036121-1.4889487,1.8194397,0,3.4127539.3896314,4.7869005,1.1654155,1.3741466.775784,2.4734639,1.8090031,3.3014307,3.0996572v-12.1029265h6.4950169v34.7224231ZM418.441395,441.033997c-.8766707.7305589-2.1742826,1.0923596-3.8928355,1.0923596-1.6872433,0-2.9778974-.3618006-3.8684836-1.0923596-.894065-.7270801-1.3428369-1.6837644-1.3428369-2.8770107,0-1.1897674.4487719-2.1464518,1.3428369-2.8770107.8905861-.7270801,2.1812403-1.0888807,3.8684836-1.0888807,1.7185529,0,3.0161648.3618006,3.8928355,1.0888807.8766707.7305589,1.3150061,1.6872433,1.3150061,2.8770107,0,1.1932463-.4383354,2.1499306-1.3150061,2.8770107ZM468.9125817,437.6838624c0,3.7049775-.6783762,6.8289867-2.0351285,9.3755065-1.3567523,2.5465198-3.3153461,4.470325-5.8792601,5.7783734-2.5604352,1.3045695-5.6287827,1.9585937-9.198085,1.9585937h-11.5567468v-34.7224231h12.0507438c3.5066829,0,6.4984958.6296722,8.9789173,1.8855379s4.3729171,3.1170515,5.6809655,5.5800788c1.3045695,2.4630273,1.9585937,5.5139806,1.9585937,9.1528599v.9914729ZM481.5999554,454.796336h-6.4984958v-26.2896855h6.4984958v26.2896855ZM481.1790143,424.8851654c-.7444744.7270801-1.694201,1.0923596-2.8526587,1.0923596s-2.1081844-.3652795-2.8491799-1.0923596c-.7444744-.7270801-1.1201904-1.669849-1.1201904-2.8283068,0-1.1549789.375716-2.0977478,1.1201904-2.8248279.7409955-.7270801,1.6768067-1.0923596,2.800476-1.0923596,1.1897674,0,2.1568883.3652795,2.9013627,1.0923596s1.1167115,1.669849,1.1167115,2.8248279c0,1.1584578-.3722372,2.1012267-1.1167115,2.8283068ZM509.2150835,451.3974975c-.8766707,1.2419502-2.1986345,2.2160288-3.9693703,2.9291935-1.7707357.7096858-3.976328,1.0645288-6.6202556,1.0645288-2.1499306,0-3.951976-.2226465-5.4061362-.6679396-1.457639-.4487719-2.657843-1.057571-3.5971331-1.8368339-.9427689-.775784-1.6385394-1.6628913-2.0838324-2.6543642-.4487719-.9914729-.7201224-2.0316496-.8175302-3.1240092h6.5471997c.163506.8592765.6748973,1.5620046,1.5376526,2.1081844.8592765.5461798,2.1325364.8175302,3.8197796.8175302,1.9168475,0,3.2909941-.2643928,4.1154821-.7931783s1.2419502-1.2071617,1.2419502-2.0351285c0-.5948837-.1843792-1.081923-.5496586-1.4611179-.3618006-.3791949-1.0088671-.7096858-1.9342418-.9914729s-2.2299442-.5705317-3.9171875-.869713c-1.4541602-.1982946-2.7865606-.469645-3.9937222-.8175302s-2.2751693-.8349245-3.200544-1.4645967c-.9253747-.6261934-1.6420182-1.412414-2.1568883-2.3551829-.5113913-.9427689-.7653475-2.0907901-.7653475-3.4475425,0-1.4541602.4383354-2.776124,1.3150061-3.9693703.8731919-1.1897674,2.1464518-2.1394941,3.8163008-2.8526587,1.669849-.7096858,3.6771467-1.0645288,6.0288507-1.0645288,2.5465198,0,4.5781694.3965891,6.1019066,1.1897674,1.5167795.7931783,2.657843,1.8194397,3.4197116,3.0753053s1.2245559,2.5952237,1.388062,4.0180742h-6.5471997c-.2643928-.9601632-.775784-1.6872433-1.5376526-2.1812403-.7583898-.4974759-1.7046375-.7444744-2.8248279-.7444744-1.6559336,0-2.8387433.2574351-3.5484292.7688263s-1.0645288,1.1480212-1.0645288,1.9098898c0,.7931783.3861526,1.4054563,1.1619366,1.8333551.7792629.4313777,2.3725771.8105725,4.7869005,1.1410635,1.4889487.1982946,2.870053.4905181,4.1433129.869713s2.3899714.8836284,3.3501346,1.5133007c.9566843.6261934,1.7115952,1.412414,2.2542962,2.3551829.5461798.9427689.8210091,2.0907901.8210091,3.4475425,0,1.6211451-.4383354,3.0509533-1.3150061,4.2894247ZM530.4569546,454.8450399c-.6261934.0660982-1.2802176.1252387-1.9585937.1739426-.6783762.0487039-1.5133007.0765347-2.5047735.0765347-2.0490439,0-3.7362872-.2922236-5.0617298-.869713-1.3219638-.5774895-2.2890847-1.5133007-2.9013627-2.8039548-.612278-1.2871753-.9149381-2.9570243-.9149381-5.0095471v-12.4508118h-3.5240772v-5.4548401h3.5240772v-5.952316h6.4950169v5.952316h6.352384v5.4548401h-6.352384v11.410635c0,1.4889487.2748293,2.5534775.8210091,3.200544.5461798.6435876,1.5620046.9671209,3.0509533.9671209.9914729,0,1.9829457-.0521828,2.9744186-.1495906v5.4548401ZM550.4638332,434.0136734c-.330491-.1321964-.7514321-.2574351-1.2628233-.3722372-.5148701-.1148021-1.200204-.1739426-2.0594805-.1739426-1.3219638,0-2.3899714.281787-3.200544.8418822-.8105725.563574-1.3984986,1.2976118-1.7602992,2.2090711-.3618006.9079804-.5461798,1.8924956-.5461798,2.9500666v15.3278225h-6.4950169v-26.2896855h5.9488371v3.9171875c.3652795-.7583898.8627553-1.4680756,1.4889487-2.1325364.6261934-.6609819,1.4054563-1.2210771,2.3308309-1.6837644s1.951636-.6957704,3.0753053-.6957704c.6261934,0,1.1688943.0313097,1.6141874.0974079.4452931.069577.7340378.1356752.8662342.1982946v5.8062042ZM561.4117808,454.796336h-6.4984958v-26.2896855h6.4984958v26.2896855ZM560.9873609,424.8851654c-.7444744.7270801-1.6907221,1.0923596-2.8526587,1.0923596-1.1549789,0-2.1081844-.3652795-2.8491799-1.0923596-.7444744-.7270801-1.1167115-1.669849-1.1167115-2.8283068,0-1.1549789.3722372-2.0977478,1.1167115-2.8248279.7409955-.7270801,1.6768067-1.0923596,2.800476-1.0923596,1.1897674,0,2.1568883.3652795,2.9013627,1.0923596s1.1201904,1.669849,1.1201904,2.8248279c0,1.1584578-.375716,2.1012267-1.1201904,2.8283068ZM574.1026334,446.4366543c.5427009,1.175852,1.2871753,2.0351285,2.2299442,2.5813083s2.0072977.8175302,3.200544.8175302c1.2906541,0,2.4038868-.3374487,3.3466557-1.0158248.9427689-.6783762,1.5793989-1.6454971,1.9098898-2.9013627h6.6480864c-.1982946,1.8855379-.8279668,3.5553869-1.8855379,5.0095471-1.0610499,1.4541602-2.4560696,2.563914-4.1920168,3.3223038-1.7359472.7618686-3.6806255,1.1410635-5.8270773,1.1410635-2.4143234,0-4.5955637-.5044336-6.5506786-1.5133007-1.9481572-1.0088671-3.4927675-2.5117312-4.633831-4.5120712-1.1410635-2.00034-1.7115952-4.4911981-1.7115952-7.4656167v-.9914729c0-2.845701.5914049-5.2252359,1.7846511-7.1455623,1.1897674-1.9168475,2.7587297-3.3710077,4.7138446-4.3624806,1.9481572-.9949517,4.0841724-1.4889487,6.3976091-1.4889487,2.4804216,0,4.5781694.4139834,6.3002012,1.2384714,1.7185529.8279668,3.0474745,1.9690303,3.9937222,3.4231905.9392901,1.457639,1.4750333,3.0613899,1.6107085,4.8112525h-6.6480864c-.2643928-1.1897674-.800136-2.1394941-1.6107085-2.8526587-.8105725-.7096858-2.0281708-1.0645288-3.645837-1.0645288-1.1236692,0-2.1603672.2643928-3.0996572.7931783-.9462478.5287855-1.7046375,1.3393581-2.282127,2.4317176-.5774895,1.0888807-.869713,2.494337-.869713,4.2163688v.9914729c0,1.8507493.2713505,3.36405.8210091,4.5364232ZM611.6150958,454.8450399c-.6296722.0660982-1.2836964.1252387-1.9585937.1739426-.681855.0487039-1.5133007.0765347-2.5047735.0765347-2.0525228,0-3.7362872-.2922236-5.0617298-.869713-1.3219638-.5774895-2.2890847-1.5133007-2.9013627-2.8039548-.612278-1.2871753-.9149381-2.9570243-.9149381-5.0095471v-12.4508118h-3.5240772v-5.4548401h3.5240772v-5.952316h6.4950169v5.952316h6.3489051v5.4548401h-6.3489051v11.410635c0,1.4889487.2748293,2.5534775.8175302,3.200544.5496586.6435876,1.5654835.9671209,3.0544322.9671209.987994,0,1.9829457-.0521828,2.9744186-.1495906v5.4548401ZM652.2898349,454.796336h-21.8263182v-6.1506106h7.9352617v-21.0331399l-7.9352617,5.6566136v-7.2429701l8.3840336-5.952316h6.9959716v28.5718125h6.446313v6.1506106Z"/>
    <path class="st2" d="M175.7218823,434.3337278c-.9775574-.5774895-2.0907901-.8662342-3.3501346-.8662342-1.2558656,0-2.3725771.2887447-3.3466557.8662342-.9740786.5809683-1.7463838,1.4158928-2.306479,2.5047735-.5600952,1.0923596-.8453611,2.4491119-.8453611,4.070257v.9914729c0,1.7846511.2852659,3.2666421.8453611,4.4390153s1.3324004,2.0490439,2.306479,2.6300122c.9740786.5774895,2.0907901.8662342,3.3466557.8662342,1.2593445,0,2.3725771-.2887447,3.3501346-.8662342.9775574-.5809683,1.7429049-1.4645967,2.306479-2.6543642.563574-1.1897674.8418822-2.6613219.8418822-4.4146633v-.9914729c0-1.6211451-.2783082-2.9778974-.8418822-4.070257-.563574-1.0888807-1.3289215-1.9238052-2.306479-2.5047735Z"/>
  </g>
  <g>
    <path class="st1" d="M50.0517647,332.0015115H6.1625663c-2.4108445,0-4.3625663-1.951636-4.3625663-4.3624806V36.977457c0-2.4108445,1.9517218-4.3624806,4.3625663-4.3624806h43.8891984c2.4108445,0,4.3624806,1.951636,4.3624806,4.3624806s-1.951636,4.3624806-4.3624806,4.3624806H10.5250469v281.9366128h39.5267178c2.4108445,0,4.3624806,1.951636,4.3624806,4.3624806s-1.951636,4.3624806-4.3624806,4.3624806Z"/>
    <path class="st1" d="M635.7590529,32.6149765h-379.6687922c-2.4108445,0-4.3624806,1.951636-4.3624806,4.3624806s1.951636,4.3624806,4.3624806,4.3624806h370.9438311l8.7249611-8.7249611Z"/>
    <path class="st1" d="M709.4751427,123.8532943v199.4232561h-39.5267178c-2.4108445,0-4.3624806,1.951636-4.3624806,4.3624806s1.951636,4.3624806,4.3624806,4.3624806h43.8891984c2.4108445,0,4.3623767-1.951636,4.3623767-4.3624806V115.1283331l-8.7248573,8.7249611Z"/>
  </g>
  <g>
    <g>
      <path class="st0" d="M80.3950997,71.5522314V1.4533611h22.5290464c7.0759852,0,13.1187514,1.2523868,18.1248196,3.7571603s8.8258478,6.2410607,11.4662966,11.2158193c2.6369699,4.9747585,3.9554549,11.1636365,3.9554549,18.5770703v2.00034c0,7.4760532-1.3706677,13.786691-4.1050455,18.9249556-2.7378566,5.1417434-6.6933115,9.0276213-11.8663646,11.6645912-5.176532,2.6404488-11.3654099,3.9589337-18.5770703,3.9589337h-21.5271369ZM92.4110549,61.1365481h8.5092723c4.6060002,0,8.6275533-.7862206,12.068138-2.351704,3.4371059-1.5689623,6.1088643-4.1224398,8.0117964-7.6604324,1.8994533-3.5414715,2.8526587-8.2448795,2.8526587-14.1206608v-2.00034c0-5.4757132-.9671209-9.9147286-2.9048415-13.3205248s-4.5538174-5.8896966-7.858727-7.4621378c-3.3049095-1.5654835-7.0272813-2.351704-11.1671153-2.351704h-9.5111817v49.2675038Z"/>
      <path class="st0" d="M147.8952675,71.5522314V1.4533611h26.5332052c5.8757812,0,10.7670473.9392901,14.6703194,2.8039548,3.9067509,1.8716224,6.8602964,4.4424942,8.8641152,7.7126152,2.00034,3.2735998,3.0022494,7.0446756,3.0022494,11.316706,0,4.8042948-1.3010907,8.9615231-3.9032721,12.4647272-2.6056602,3.5032041-6.5089323,6.0253719-11.716774,7.5595457l17.6238649,28.2413216h-13.2196381l-15.5191593-26.8358653h-14.3189553v26.8358653h-12.0159552ZM159.9112227,34.7007508h12.5169099c6.140174,0,10.4295987-1.0019094,12.8647952-3.0022494,2.4386753-2.0038188,3.6562736-4.8077736,3.6562736-8.4118644s-1.2175982-6.4080456-3.6562736-8.4118644c-2.4351965-2.0038188-6.7246212-3.0057282-12.8647952-3.0057282h-12.5169099v22.8317065Z"/>
      <path class="st0" d="M218.8847239,72.5541408c-1.269781,0-2.4386753-.3200544-3.5066829-.9532055s-1.9203264-1.4854699-2.5534775-2.5534775-.9497266-2.2369019-.9497266-3.5066829c0-2.00034.681855-3.6667101,2.0525228-5.0060682,1.3671889-1.3324004,3.0196436-2.00034,4.9573643-2.00034,1.9342418,0,3.5866965.6679396,4.9538854,2.00034,1.3706677,1.3393581,2.0560016,3.0057282,2.0560016,5.0060682,0,1.269781-.3200544,2.4386753-.9532055,3.5066829-.6366299,1.0680076-1.4680756,1.9203264-2.5047735,2.5534775-1.0332191.6331511-2.2195077.9532055-3.551908.9532055Z"/>
    </g>
    <g>
      <path class="st0" d="M80.3950997,362.7982525v-70.0953915h46.5609568v10.4156833h-34.5450016v19.926865h31.5427522v10.4122044h-31.5427522v29.3406388h-12.0159552Z"/>
      <path class="st0" d="M141.2054348,362.7982525v-70.0953915h12.0194341v70.0953915h-12.0194341Z"/>
      <path class="st0" d="M190.6851486,362.7982525v-59.6797082h-23.5309558v-10.4156833h59.0778668v10.4156833h-23.5309558v59.6797082h-12.0159552Z"/>
      <path class="st0" d="M236.6755737,362.7982525v-9.410295l37.6516165-50.2694132h-36.6497071v-10.4156833h51.0695492v9.4137739l-37.6516165,50.2694132h38.653526v10.4122044h-53.073368Z"/>
      <path class="st0" d="M318.9573841,362.7982525l-18.5248876-70.0953915h12.4160232l13.3170459,52.0714586,15.3208648-52.0714586h10.0156153l16.2218875,52.0714586,13.2161592-52.0714586h11.6158872l-18.5248876,70.0953915h-12.0159552l-15.9227062-52.0714586-15.1190913,52.0714586h-12.0159552Z"/>
      <path class="st0" d="M390.1555717,362.7982525l26.536684-70.0953915h12.0159552l26.536684,70.0953915h-12.8195701l-5.9070909-15.8218195h-28.4396161l-5.9070909,15.8218195h-12.0159552ZM411.9853688,336.5642286h20.6261142l-10.2139098-28.8396841-10.4122044,28.8396841Z"/>
      <path class="st0" d="M475.7492494,362.7982525v-59.6797082h-23.5309558v-10.4156833h59.0778668v10.4156833h-23.5309558v59.6797082h-12.0159552Z"/>
      <path class="st0" d="M523.6878317,362.7982525v-70.0953915h47.0619115v10.4156833h-35.0459563v18.4240009h32.0437069v10.4156833h-32.0437069v20.4278197h35.0459563v10.4122044h-47.0619115Z"/>
      <path class="st0" d="M584.5086034,362.7982525v-70.0953915h26.5332052c5.8757812,0,10.7670473.9358112,14.6703194,2.8039548,3.9067509,1.8716224,6.8602964,4.4424942,8.8641152,7.7126152,2.00034,3.270121,3.0022494,7.0411967,3.0022494,11.3132271,0,4.8077736-1.3010907,8.9615231-3.9032721,12.468206-2.6056602,3.5032041-6.5089323,6.0253719-11.716774,7.5595457l17.6238649,28.2378427h-13.2196381l-15.5191593-26.8358653h-14.3189553v26.8358653h-12.0159552ZM596.5245586,325.9502507h12.5169099c6.140174,0,10.4295987-1.0019094,12.8647952-3.0057282,2.4386753-2.0038188,3.6562736-4.8077736,3.6562736-8.4118644s-1.2175982-6.4080456-3.6562736-8.4118644c-2.4351965-2.00034-6.7246212-3.0022494-12.8647952-3.0022494h-12.5169099v22.8317065Z"/>
    </g>
    <g>
      <path class="st0" d="M145.247861,251.673279c-12.4960368,0-23.6527156-2.2647327-33.4665574-6.7907193-9.8207995-4.5225078-17.4986262-11.8246184-23.0473953-21.8958953-5.5452903-10.0712769-8.3179354-23.4578999-8.3179354-40.1598689v-3.6354005c0-11.855928,1.6559336-21.9898243,4.9712797-30.4051676,3.3153461-8.4153433,7.9387405-15.2999916,13.8667046-20.6539451s12.843922-9.3059294,20.7478741-11.855928,16.3192953-3.8267373,25.2460299-3.8267373c8.1579082,0,15.8392137.9566843,23.0439165,2.870053,7.2012239,1.9098898,13.5779598,4.93997,19.1232501,9.0832829,5.5452903,4.1433129,10.0086576,9.5320548,13.386623,16.1592681,3.3779654,6.6306922,5.3226438,14.725981,5.834035,24.2858667h-42.8385851c-.894065-6.6272133-3.0926995-11.2158193-6.5993825-13.7658179-3.5066829-2.5499986-7.4899686-3.8267373-11.949857-3.8267373-3.9554549,0-7.5560668,1.0227825-10.8053147,3.0613899-3.2527267,2.0386073-5.834035,5.3852631-7.7474037,10.0399672-1.9098898,4.6547041-2.8665742,10.9305534-2.8665742,18.8345054v3.8267373c0,6.2480184.5740106,11.504564,1.7185529,15.7765944,1.1480212,4.2720304,2.6787161,7.7439248,4.5920848,10.422641,1.9133687,2.6752373,4.1746225,4.6233945,6.7872405,5.8305562,2.6126179,1.2141194,5.3852631,1.8194397,8.3214143,1.8194397,4.9712797,0,9.1111137-1.3080484,12.4299386-3.9206663,3.3118672-2.6126179,5.3539534-7.1733931,6.1193009-13.6753677h42.8385851c-.5113913,9.692082-2.3899714,17.8812999-5.6426981,24.5746114-3.2527267,6.6933115-7.6186862,12.0820534-13.1013571,16.1592681-5.4826709,4.0841724-11.855928,7.0481544-19.1232501,8.8954249-7.2673221,1.8437916-15.1086548,2.7726451-23.5205192,2.7726451Z"/>
      <path class="st0" d="M226.8860838,248.9945629V115.1283331h42.4559113v48.1890596h39.3980003v-48.1890596h42.4524325v133.8662298h-42.4524325v-51.0625915h-39.3980003v51.0625915h-42.4559113Z"/>
      <path class="st0" d="M366.8750933,248.9945629l48.0012016-133.8662298h42.6472482l48.0012016,133.8662298h-45.3259643l-6.8846484-21.8019663h-39.9685321l-6.8846484,21.8019663h-39.5858583ZM423.1003014,195.6394079h20.2712713l-9.9460382-36.5279473-10.3252331,36.5279473Z"/>
      <path class="st0" d="M521.0125944,248.9945629V115.1283331h59.2865979c12.7465142,0,23.2004648,1.8472705,31.3618519,5.5452903,8.1579082,3.6980198,14.2145898,8.9893539,18.1700446,15.8740022,3.9484972,6.8846484,5.927964,15.2965128,5.927964,25.242551,0,8.9232557-2.0420862,16.7332787-6.1193009,23.4265902-4.0841724,6.6933115-10.2660926,11.8246184-18.5527184,15.3939207l28.4952778,48.3838754h-46.087833l-22.3759769-42.6472482h-7.6499958v42.6472482h-42.4559113ZM563.4685057,175.7508103h11.0940594c6.7559308,0,11.4732543-1.2454291,14.1519704-3.7293295,2.6752373-2.4873793,4.0145954-5.8966544,4.0145954-10.2313041,0-4.4598884-1.3393581-7.9352617-4.0145954-10.422641-2.6787161-2.4873793-7.3960396-3.7293295-14.1519704-3.7293295h-11.0940594v28.112604Z"/>
    </g>
  </g>
  <g>
    <path class="st3" d="M710.71426,33.9310336l-40.4170994,40.4170994c2.2385271,1.8658493,4.3036299,3.930952,6.1694792,6.1694792l40.4170994-40.4170994c1.7047245-1.7047245,1.7047245-4.4647547,0-6.1694792-1.7047245-1.7047245-4.4647547-1.7047245-6.1694792,0Z"/>
    <path class="st0" d="M639.6312024,82.6934087v23.9671885c0,2.4980348,2.0250573,4.523092,4.523092,4.523092h23.9671885c0-15.7348025-12.755478-28.4902806-28.4902806-28.4902806Z"/>
    <path class="st3" d="M687.5701034,111.183589l.0003075.0003075,30.6295891-30.629693v-12.3389584l-31.9517961,31.9518999c.8345278,3.5428997,1.322207,7.218635,1.3218995,11.0164439Z"/>
    <path class="st3" d="M682.5998351,32.6149765h-12.3389584l-30.629693,30.629693c3.7978089-.0003075,7.4738517.4876791,11.0167514,1.322207l31.9518999-31.9518999Z"/>
    <path class="st3" d="M665.3355021,70.7640297l38.1490532-38.1490532h-12.3389584l-33.9837938,33.9837938c2.872264,1.1306407,5.6033901,2.5272602,8.1736989,4.1652594Z"/>
    <path class="st3" d="M680.0507431,85.4792707c1.6379992,2.5703088,3.0346187,5.3014349,4.1652594,8.1736989l33.9837938-33.9837938v-12.3389584l-38.1490532,38.1490532Z"/>
  </g>
</svg>