<?xml version="1.0" encoding="UTF-8"?>
<svg id="Layer_1" xmlns="http://www.w3.org/2000/svg" version="1.1" viewBox="0 0 720 466.8008577">
  <!-- Generator: Adobe Illustrator 30.2.1, SVG Export Plug-In . SVG Version: 2.1.1 Build 1)  -->
  <defs>
    <style>
      .st0 {
        fill: #fff;
      }
    </style>
  </defs>
  <g>
    <path class="st0" d="M3.6,92.4514893V3.0959502h28.717939c9.0198098,0,16.7225676,1.5964265,23.1038391,4.7892795,6.3812715,3.192853,11.2503723,7.9555254,14.6161716,14.2968863,3.3613647,6.3413608,5.042047,14.2303685,5.042047,23.6803265v2.5498479c0,9.5297793-1.7472001,17.5739951-5.2327313,24.1237783-3.4899657,6.5542177-8.5320128,11.5075744-15.1261411,14.8689391-6.5985629,3.3657992-14.4875705,5.0464816-23.6803265,5.0464816H3.6ZM18.9168254,79.1745422h10.8468312c5.8713019,0,10.9976048-1.0022011,15.3833432-2.9977342,4.3813039-1.9999676,7.7870137-5.2549039,10.2126951-9.7648088,2.4212469-4.5143394,3.6363048-10.5098078,3.6363048-17.9997088v-2.5498479c0-6.9799314-1.232796-12.6383765-3.7028226-16.9797697s-5.8047842-7.5076391-10.0175763-9.5120413c-4.2127922-1.9955331-8.9577265-2.9977342-14.234803-2.9977342h-12.1239724v62.8016449Z"/>
    <path class="st0" d="M89.6429541,92.4514893V3.0959502h33.8220693c7.489901,0,13.7248334,1.1973199,18.7003627,3.5742216,4.9799638,2.3857707,8.7448696,5.6628796,11.299152,9.8313266,2.5498479,4.1728815,3.8269891,8.9798991,3.8269891,14.4254873,0,6.1240695-1.6585098,11.4233185-4.9755293,15.8888782-3.321454,4.4655597-8.2969833,7.6805853-14.9354569,9.6362078l22.4652685,35.9994177h-16.8511687l-19.7823851-34.2078724h-18.2524764v34.2078724h-15.3168254ZM104.9597795,45.4766394h15.955396c7.8269244,0,13.2946852-1.2771412,16.3988478-3.8269891,3.1085972-2.5542824,4.6606785-6.128504,4.6606785-10.7226647s-1.5520813-8.1683823-4.6606785-10.7226647c-3.1041626-2.5542824-8.5719234-3.8314236-16.3988478-3.8314236h-15.955396v29.1037421Z"/>
    <path class="st0" d="M180.1337298,93.7286305c-1.6185991,0-3.1085972-.4079757-4.4699942-1.215058-1.361397-.8070823-2.447854-1.8935392-3.2549363-3.2549363s-1.2106234-2.8513951-1.2106234-4.4699942c0-2.5498479.8691655-4.673982,2.6163657-6.3812715,1.7427656-1.6984204,3.8491617-2.5498479,6.3191882-2.5498479,2.465592,0,4.5719881.8514275,6.3147537,2.5498479,1.7472001,1.7072895,2.6208002,3.8314236,2.6208002,6.3812715,0,1.6185991-.4079757,3.1085972-1.215058,4.4699942-.8115168,1.361397-1.8713666,2.447854-3.192853,3.2549363-1.3170519.8070823-2.8292225,1.215058-4.5276429,1.215058Z"/>
  </g>
  <g>
    <path class="st0" d="M3.6,463.7049076v-89.3511046h59.3515898v13.2769471H18.9168254v25.4009195h40.2077753v13.2725126H18.9168254v37.4007254H3.6Z"/>
    <path class="st0" d="M81.1153759,463.7049076v-89.3511046h15.3212599v89.3511046h-15.3212599Z"/>
    <path class="st0" d="M144.1875264,463.7049076v-76.0741575h-29.9950802v-13.2769471h75.3069859v13.2769471h-29.9950802v76.0741575h-15.3168254Z"/>
    <path class="st0" d="M202.8118552,463.7049076v-11.9953714l47.9947891-64.0787861h-46.7176479v-13.2769471h65.0987253v11.9998059l-47.9947891,64.0787861h49.2719303v13.2725126h-67.6530077Z"/>
    <path class="st0" d="M307.6970766,463.7049076l-23.6138087-89.3511046h15.826795l16.9753352,66.3758665,19.5296176-66.3758665h12.7669775l20.6781578,66.3758665,16.8467341-66.3758665h14.8068558l-23.6138087,89.3511046h-15.3168254l-20.2967892-66.3758665-19.2724155,66.3758665h-15.3168254Z"/>
    <path class="st0" d="M398.4539234,463.7049076l33.8265038-89.3511046h15.3168254l33.8265038,89.3511046h-16.3411991l-7.5298117-20.1681882h-36.2521852l-7.5298117,20.1681882h-15.3168254ZM426.2805243,430.2642068h26.2922576l-13.0197451-36.7621548-13.2725126,36.7621548Z"/>
    <path class="st0" d="M507.560806,463.7049076v-76.0741575h-29.9950802v-13.2769471h75.3069859v13.2769471h-29.9950802v76.0741575h-15.3168254Z"/>
    <path class="st0" d="M568.668465,463.7049076v-89.3511046h59.9901604v13.2769471h-44.673335v23.4852077h40.8463459v13.2769471h-40.8463459v26.0394901h44.673335v13.2725126h-59.9901604Z"/>
    <path class="st0" d="M646.1971444,463.7049076v-89.3511046h33.8220693c7.489901,0,13.7248334,1.1928854,18.7003627,3.5742216,4.9799638,2.3857707,8.7448696,5.6628796,11.299152,9.8313266,2.5498479,4.168447,3.8269891,8.9754646,3.8269891,14.4210528,0,6.128504-1.6585098,11.4233185-4.9755293,15.8933128-3.321454,4.4655597-8.2969833,7.6805853-14.9354569,9.6362078l22.4652685,35.9949832h-16.8511687l-19.7823851-34.2078724h-18.2524764v34.2078724h-15.3168254ZM661.5139699,416.7344922h15.955396c7.8269244,0,13.2946852-1.2771412,16.3988478-3.8314236,3.1085972-2.5542824,4.6606785-6.128504,4.6606785-10.7226647s-1.5520813-8.1683823-4.6606785-10.7226647c-3.1041626-2.5498479-8.5719234-3.8269891-16.3988478-3.8269891h-15.955396v29.1037421Z"/>
  </g>
  <g>
    <path class="st0" d="M86.2682859,322.0530969c-15.9287889,0-30.1502884-2.8868713-42.6600638-8.6561793-12.5186445-5.7648735-22.3056259-15.0729269-29.3786822-27.9108567-7.0686218-12.8379298-10.6029327-29.9019553-10.6029327-51.1920766v-4.6340714c0-15.1128376,2.1108306-28.0305887,6.3369263-38.7576879,4.2260957-10.7270992,10.1195702-19.5030105,17.675989-26.3277338,7.5564188-6.8247233,16.3722407-11.8623358,26.4474658-15.1128376,10.0752251-3.2505017,20.8023243-4.8779699,32.1812976-4.8779699,10.3989449,0,20.1903608,1.2194925,29.3742477,3.6584774,9.1794524,2.4345504,17.307924,6.2970157,24.3765458,11.5785267,7.0686218,5.281511,12.7581085,12.1505795,17.0640255,20.5983364,4.305917,8.4521914,6.7848126,18.771315,7.4366868,30.9573706h-54.6066555c-1.1396711-8.4477569-3.9422866-14.2968863-8.4122808-17.547388-4.4699942-3.2505017-9.5475174-4.8779699-15.2325696-4.8779699-5.042047,0-9.6317732,1.3037483-13.7736131,3.9023759-4.1462744,2.5986276-7.4366868,6.864634-9.8756717,12.7980191-2.4345504,5.9333852-3.6540429,13.9332558-3.6540429,24.0084808v4.8779699c0,7.9643945.7316955,14.6649513,2.1906519,20.1105394,1.463391,5.4455882,3.4145789,9.8712372,5.8535639,13.2858161,2.4389849,3.4101444,5.3214217,5.8934745,8.6517448,7.4322523,3.3303231,1.5476468,6.864634,2.319253,10.6073672,2.319253,6.3369263,0,11.6140028-1.6673788,15.8445331-4.9977019,4.2216612-3.3303231,6.8247233-9.1439763,7.8003173-17.4320905h54.6066555c-.6518742,12.3545673-3.0465139,22.7934229-7.1927883,31.3254356-4.1462744,8.5320128-9.7115946,15.4010813-16.7003951,20.5983364-6.9888005,5.2061242-15.1128376,8.9843336-24.3765458,11.3390627-9.2637082,2.3502946-19.259112,3.5343109-29.9817767,3.5343109Z"/>
    <path class="st0" d="M190.3331214,318.6385179v-170.6402553h54.1188585v61.4269443h50.2209171v-61.4269443h54.114424v170.6402553h-54.114424v-65.0898562h-50.2209171v65.0898562h-54.1188585Z"/>
    <path class="st0" d="M368.7781285,318.6385179l61.1874803-170.6402553h54.362757l61.1874803,170.6402553h-57.7773359l-8.7759113-27.7911247h-50.9481781l-8.7759113,27.7911247h-50.4603811ZM440.4488096,250.6263143h25.8399368l-12.6782872-46.5624397-13.1616496,46.5624397Z"/>
    <path class="st0" d="M565.2583206,318.6385179v-170.6402553h75.5730569c16.2480742,0,29.573801,2.3547291,39.9771804,7.0686218,10.3989449,4.7138927,18.1194408,11.4587947,23.1614879,20.234706,5.033178,8.7759113,7.5564188,19.498576,7.5564188,32.1768631,0,11.3745388-2.6030621,21.3300319-7.8003173,29.8620447-5.2061242,8.5320128-13.0862628,15.0729269-23.6492849,19.6227425l36.3231375,61.6752773h-58.7484954l-28.5228202-54.362757h-9.7515052v54.362757h-54.1188585ZM619.3771792,225.2741745h14.1416781c8.6118341,0,14.6250406-1.5875575,18.0396195-4.7538034,3.4101444-3.1706804,5.1174339-7.5165081,5.1174339-13.0419176,0-5.6850522-1.7072895-10.1151357-5.1174339-13.2858161-3.4145789-3.1706804-9.4277854-4.7538034-18.0396195-4.7538034h-14.1416781v35.8353405Z"/>
  </g>
</svg>