<?xml version="1.0" encoding="UTF-8"?>
<svg id="Layer_1" xmlns="http://www.w3.org/2000/svg" version="1.1" viewBox="0 0 360 360">
  <!-- Generator: Adobe Illustrator 30.2.1, SVG Export Plug-In . SVG Version: 2.1.1 Build 1)  -->
  <defs>
    <style>
      .st0 {
        fill: #6e3689;
      }
    </style>
  </defs>
  <path class="st0" d="M325.4091589,6.3778374l-184.8195782,184.8195782c10.2363516,8.5321678,19.6796672,17.9754834,28.211835,28.211835L353.6209939,34.5896724c7.7953755-7.7953755,7.7953755-20.4164596,0-28.211835-7.7953755-7.7953755-20.4164596-7.7953755-28.211835,0Z"/>
  <path class="st0" d="M.3600852,229.3587474v109.5973175c0,11.4230298,9.2601953,20.683225,20.683225,20.683225h109.5973175c0-71.9522087-58.3283338-130.2805425-130.2805425-130.2805425Z"/>
  <path class="st0" d="M219.575407,359.6388313l.0014061.0014061,140.0631869-140.0636618v-56.42367l-146.1093836,146.1098585c3.8161344,16.200995,6.0461967,33.0094218,6.0447906,50.3760672Z"/>
  <path class="st0" d="M196.8473318.3597626h-56.42367L.36,140.4234243c17.3666454-.0014061,34.1764784,2.2300623,50.3774733,6.0461967L196.8473318.3597626Z"/>
  <path class="st0" d="M117.900876,174.8080043L292.3491178.3597626h-56.42367L80.5241317,155.7610787c13.1343078,5.1702012,25.6232192,11.5566722,37.3767443,19.0469257Z"/>
  <path class="st0" d="M185.190827,242.0979553c7.4902534,11.7535252,13.8767245,24.2424366,19.0469257,37.3767443l155.4013161-155.4013161v-56.42367l-174.4482418,174.4482418Z"/>
</svg>